<svg xmlns="http://www.w3.org/2000/svg" width="120" height="34" fill="none" viewBox="0 0 120 34"><path fill="#32DDAA" d="M0.698242 10.75V8.51562H8.35352V10.75L6.37305 11.1309V24.3975L8.35352 24.7783V27H0.698242V24.7783L2.67871 24.3975V11.1309L0.698242 10.75ZM27.6123 13.3271L27.5361 13.3145L22.585 27H20.0967L15.1709 13.3652L15.0947 13.3779L15.4502 21.4902V24.3975L17.4307 24.7783V27H9.77539V24.7783L11.7432 24.3975V11.1309L9.77539 10.75V8.51562H11.7432H16.5801L21.29 22.1377H21.3662L26.1143 8.51562H32.9443V10.75L30.9639 11.1309V24.3975L32.9443 24.7783V27H25.2891V24.7783L27.2568 24.3975V21.4902L27.6123 13.3271Z"/><path fill="#333" d="M42.5801 8.51562C44.679 8.51562 46.3252 8.99805 47.5186 9.96289C48.7119 10.9193 49.3086 12.2438 49.3086 13.9365C49.3086 14.8675 49.0589 15.6758 48.5596 16.3613C48.0602 17.0469 47.3281 17.6012 46.3633 18.0244C47.4551 18.346 48.238 18.8835 48.7119 19.6367C49.1943 20.3815 49.4355 21.3083 49.4355 22.417V23.3564C49.4355 23.7627 49.516 24.0801 49.6768 24.3086C49.8376 24.5286 50.1042 24.6598 50.4766 24.7021L50.9336 24.7656V27H49.0166C47.8063 27 46.9557 26.6742 46.4648 26.0225C45.974 25.3708 45.7285 24.5286 45.7285 23.4961V22.4424C45.7285 21.5452 45.4873 20.8428 45.0049 20.335C44.5309 19.8187 43.8581 19.5479 42.9863 19.5225H39.9521V24.3975L41.9326 24.7783V27H34.2773V24.7783L36.2451 24.3975V11.1309L34.2773 10.75V8.51562H36.2451H42.5801ZM39.9521 16.666H42.5166C43.5492 16.666 44.3236 16.446 44.8398 16.0059C45.3561 15.5658 45.6143 14.931 45.6143 14.1016C45.6143 13.2721 45.3561 12.612 44.8398 12.1211C44.332 11.6217 43.5788 11.3721 42.5801 11.3721H39.9521V16.666ZM58.8174 27.2666C56.8369 27.2666 55.2542 26.6318 54.0693 25.3623C52.8844 24.0928 52.292 22.4805 52.292 20.5254V20.0176C52.292 17.9779 52.8506 16.2979 53.9678 14.9775C55.0934 13.6572 56.5999 13.0013 58.4873 13.0098C60.3408 13.0098 61.7796 13.5684 62.8037 14.6855C63.8278 15.8027 64.3398 17.3135 64.3398 19.2178V21.2363H56.1387L56.1133 21.3125C56.181 22.2181 56.4814 22.9629 57.0146 23.5469C57.5563 24.1309 58.2884 24.4229 59.2109 24.4229C60.0319 24.4229 60.7132 24.3424 61.2549 24.1816C61.7965 24.0124 62.389 23.75 63.0322 23.3945L64.0352 25.6797C63.4681 26.1283 62.7318 26.5049 61.8262 26.8096C60.929 27.1143 59.9261 27.2666 58.8174 27.2666ZM58.4873 15.8662C57.8018 15.8662 57.2601 16.1286 56.8623 16.6533C56.4645 17.1781 56.2191 17.8678 56.126 18.7227L56.1641 18.7861H60.709V18.4561C60.709 17.6689 60.5228 17.0426 60.1504 16.5771C59.7865 16.1032 59.2321 15.8662 58.4873 15.8662ZM72.5537 24.4229C73.2139 24.4229 73.7428 24.2324 74.1406 23.8516C74.5384 23.4622 74.7373 22.946 74.7373 22.3027H78.0889L78.127 22.3789C78.1608 23.7669 77.6403 24.9307 76.5654 25.8701C75.4906 26.8011 74.1533 27.2666 72.5537 27.2666C70.5055 27.2666 68.9271 26.6191 67.8184 25.3242C66.7096 24.0293 66.1553 22.3662 66.1553 20.335V19.9541C66.1553 17.9313 66.7223 16.2682 67.8564 14.9648C68.999 13.6615 70.624 13.0098 72.7314 13.0098C73.8402 13.0098 74.8346 13.1748 75.7148 13.5049C76.5951 13.835 77.3271 14.3005 77.9111 14.9014L77.9619 18.5703H74.9531L74.3438 16.4248C74.1576 16.264 73.929 16.1328 73.6582 16.0312C73.3874 15.9212 73.0785 15.8662 72.7314 15.8662C71.682 15.8662 70.9414 16.2471 70.5098 17.0088C70.0781 17.7705 69.8623 18.7523 69.8623 19.9541V20.335C69.8623 21.5622 70.0612 22.5524 70.459 23.3057C70.8568 24.0505 71.555 24.4229 72.5537 24.4229ZM79.8154 20.0049C79.8154 17.9567 80.3867 16.2809 81.5293 14.9775C82.6803 13.6657 84.2673 13.0098 86.29 13.0098C88.3213 13.0098 89.9082 13.6615 91.0508 14.9648C92.2018 16.2682 92.7773 17.9482 92.7773 20.0049V20.2715C92.7773 22.3366 92.2018 24.0208 91.0508 25.3242C89.9082 26.6191 88.3298 27.2666 86.3154 27.2666C84.2757 27.2666 82.6803 26.6191 81.5293 25.3242C80.3867 24.0208 79.8154 22.3366 79.8154 20.2715V20.0049ZM83.5225 20.2715C83.5225 21.5241 83.7425 22.5312 84.1826 23.293C84.6227 24.0462 85.3337 24.4229 86.3154 24.4229C87.2718 24.4229 87.9701 24.042 88.4102 23.2803C88.8587 22.5186 89.083 21.5156 89.083 20.2715V20.0049C89.083 18.7861 88.8587 17.7917 88.4102 17.0215C87.9616 16.2513 87.2549 15.8662 86.29 15.8662C85.3252 15.8662 84.6227 16.2513 84.1826 17.0215C83.7425 17.7917 83.5225 18.7861 83.5225 20.0049V20.2715ZM94.6689 24.7783L96.4463 24.3975V15.8789L94.4785 15.498V13.2637H99.8994L100.064 15.2695C100.386 14.5586 100.801 14.0042 101.309 13.6064C101.816 13.2087 102.405 13.0098 103.073 13.0098C103.268 13.0098 103.471 13.0267 103.683 13.0605C103.903 13.0859 104.085 13.1198 104.229 13.1621L103.835 16.5391L102.312 16.501C101.77 16.501 101.321 16.6068 100.966 16.8184C100.61 17.0299 100.34 17.3304 100.153 17.7197V24.3975L101.931 24.7783V27H94.6689V24.7783ZM114.017 25.3242C113.585 25.959 113.073 26.4414 112.48 26.7715C111.896 27.1016 111.228 27.2666 110.475 27.2666C108.782 27.2666 107.466 26.6488 106.526 25.4131C105.595 24.1774 105.13 22.5439 105.13 20.5127V20.2461C105.13 18.0794 105.6 16.3317 106.539 15.0029C107.479 13.6742 108.799 13.0098 110.5 13.0098C111.186 13.0098 111.803 13.1621 112.354 13.4668C112.904 13.763 113.386 14.1862 113.801 14.7363V9.81055L111.82 9.42969V7.19531H113.801H117.508V24.3975L119.285 24.7783V27H114.296L114.017 25.3242ZM108.837 20.5127C108.837 21.7145 109.036 22.6624 109.434 23.3564C109.84 24.042 110.5 24.3848 111.414 24.3848C111.956 24.3848 112.425 24.2747 112.823 24.0547C113.221 23.8346 113.547 23.5173 113.801 23.1025V17.2754C113.547 16.8353 113.221 16.4967 112.823 16.2598C112.434 16.0143 111.973 15.8916 111.439 15.8916C110.534 15.8916 109.874 16.2936 109.459 17.0977C109.044 17.9017 108.837 18.9512 108.837 20.2461V20.5127Z"/></svg>